<?xml version="1.0" encoding="UTF-8" standalone="no"?>
<!-- Created with Inkscape (http://www.inkscape.org/) -->

<svg
   width="210mm"
   height="297mm"
   viewBox="0 0 210 297"
   version="1.1"
   id="svg1"
   inkscape:version="1.4 (86a8ad7, 2024-10-11)"
   sodipodi:docname="bleh.svg"
   xmlns:inkscape="http://www.inkscape.org/namespaces/inkscape"
   xmlns:sodipodi="http://sodipodi.sourceforge.net/DTD/sodipodi-0.dtd"
   xmlns="http://www.w3.org/2000/svg"
   xmlns:svg="http://www.w3.org/2000/svg">
  <sodipodi:namedview
     id="namedview1"
     pagecolor="#ffffff"
     bordercolor="#000000"
     borderopacity="0.25"
     inkscape:showpageshadow="2"
     inkscape:pageopacity="0.0"
     inkscape:pagecheckerboard="0"
     inkscape:deskcolor="#d1d1d1"
     inkscape:document-units="mm"
     inkscape:zoom="1.4520903"
     inkscape:cx="224.15961"
     inkscape:cy="-25.824839"
     inkscape:window-width="1920"
     inkscape:window-height="1017"
     inkscape:window-x="-8"
     inkscape:window-y="-8"
     inkscape:window-maximized="1"
     inkscape:current-layer="layer1" />
  <defs
     id="defs1" />
  <g
     inkscape:label="Layer 1"
     inkscape:groupmode="layer"
     id="layer1">
    <path
       style="font-weight:bold;font-size:50.8px;font-family:Comfortaa;-inkscape-font-specification:'Comfortaa Bold';stroke:#000000;stroke-width:2.341;stroke-dasharray:none;stroke-opacity:1;paint-order:stroke fill markers"
       d="m 15.140499,41.048497 c -2.6416,0 -5.012267,-0.6096 -7.112,-1.8288 -2.099733,-1.25307 -3.7592,-2.9464 -4.9784,-5.08 C 1.8309,32.006097 1.204367,29.601567 1.1705,26.926097 V 3.7613 c 0,-0.778933 0.237067,-1.405467 0.7112,-1.8796 0.508,-0.474133 1.134533,-0.7112 1.879599,-0.7112 0.778933,0 1.405467,0.237067 1.8796,0.7112 0.474133,0.474133 0.7112,1.100667 0.7112,1.8796 v 13.715997 c 1.185333,-1.4224 2.607733,-2.54 4.2672,-3.3528 1.693333,-0.84667 3.539067,-1.27 5.5372,-1.27 2.472267,0 4.690533,0.62653 6.6548,1.8796 1.964267,1.2192 3.5052,2.8956 4.6228,5.0292 1.151467,2.09973 1.7272,4.48733 1.7272,7.1628 0,2.67547 -0.626533,5.08 -1.8796,7.2136 -1.2192,2.1336 -2.878667,3.82693 -4.9784,5.08 -2.099733,1.2192 -4.487333,1.8288 -7.1628,1.8288 z m 0,-4.572 c 1.7272,0 3.268133,-0.4064 4.6228,-1.2192 1.354667,-0.84667 2.421467,-1.99813 3.2004,-3.4544 0.8128,-1.45627 1.2192,-3.08187 1.2192,-4.8768 0,-1.8288 -0.4064,-3.4544 -1.2192,-4.8768 -0.778933,-1.4224 -1.845733,-2.54 -3.2004,-3.3528 -1.354667,-0.84667 -2.8956,-1.27 -4.6228,-1.27 -1.693333,0 -3.234267,0.42333 -4.6228,1.27 -1.354667,0.8128 -2.421467,1.9304 -3.2004,3.3528 -0.778933,1.4224 -1.1684,3.048 -1.1684,4.8768 0,1.79493 0.389467,3.42053 1.1684,4.8768 0.778933,1.45627 1.845733,2.60773 3.2004,3.4544 1.388533,0.8128 2.929467,1.2192 4.6228,1.2192 z m 28.346353,4.3688 c -1.490133,0 -2.810933,-0.4064 -3.9624,-1.2192 -1.151467,-0.8128 -2.048933,-1.91347 -2.6924,-3.302 -0.643467,-1.4224 -0.9652,-3.048 -0.9652,-4.8768 V 3.7105 c 0,-0.745067 0.237067,-1.354667 0.7112,-1.8288 0.474133,-0.474133 1.083733,-0.7112 1.8288,-0.7112 0.745067,0 1.354667,0.237067 1.8288,0.7112 0.474133,0.474133 0.7112,1.083733 0.7112,1.8288 v 27.736797 c 0,1.25307 0.237067,2.286 0.7112,3.0988 0.474133,0.8128 1.083733,1.2192 1.8288,1.2192 1.850484,-0.14646 3.422471,0.42119 3.556,2.54 0,0.74507 -0.321733,1.35467 -0.9652,1.8288 -0.643467,0.47413 -1.4732,0.7112 -2.4892,0.7112 z m 20.167526,0.2032 c -2.81093,0 -5.31707,-0.59267 -7.518399,-1.778 -2.167467,-1.2192 -3.877733,-2.87867 -5.1308,-4.9784 -1.2192,-2.1336 -1.8288,-4.572 -1.8288,-7.3152 0,-2.77707 0.575733,-5.21547 1.7272,-7.3152 1.185333,-2.1336 2.810933,-3.79307 4.8768,-4.9784 2.065866,-1.2192 4.436529,-1.8288 7.111999,-1.8288 2.6416,0 4.91067,0.59267 6.8072,1.778 1.89653,1.15147 3.33587,2.76013 4.318,4.826 1.016,2.032 1.524,4.38573 1.524,7.0612 0,0.64347 -0.22013,1.18533 -0.6604,1.6256 -0.44027,0.4064 -0.99907,0.6096 -1.6764,0.6096 H 52.732379 v -4.064 l 19.482529,0.0161 -1.24533,1.40629 c -0.0339,-1.69333 -0.37253,-3.2004 -1.016,-4.5212 -0.64347,-1.35467 -1.55787,-2.42147 -2.7432,-3.2004 -1.18533,-0.77893 -2.62467,-1.1684 -4.318,-1.1684 -1.9304,0 -3.58987,0.42333 -4.978399,1.27 -1.354667,0.84667 -2.3876,2.01507 -3.0988,3.5052 -0.7112,1.45627 -1.0668,3.11573 -1.0668,4.9784 0,1.86267 0.423333,3.52213 1.27,4.9784 0.846667,1.45627 2.015066,2.60773 3.505199,3.4544 1.49013,0.84667 3.2004,1.27 5.1308,1.27 1.04987,0 2.11667,-0.18627 3.2004,-0.5588 1.1176,-0.4064 2.01507,-0.8636 2.6924,-1.3716 0.508,-0.37253 1.04987,-0.5588 1.6256,-0.5588 0.6096,-0.0339 1.13453,0.13547 1.5748,0.508 0.57573,0.508 0.88053,1.0668 0.9144,1.6764 0.0339,0.6096 -0.23707,1.13453 -0.8128,1.5748 -1.15147,0.9144 -2.5908,1.65947 -4.318,2.2352 -1.69333,0.57573 -3.31893,0.8636 -4.8768,0.8636 z m 21.08201,-10.3124 c -0.74507,0 -1.3716,-0.23707 -1.8796,-0.7112 -0.47413,-0.508 -0.7112,-1.13453 -0.7112,-1.8796 V 3.7613 c 0,-0.778933 0.23707,-1.405467 0.7112,-1.8796 0.508,-0.474133 1.13453,-0.7112 1.8796,-0.7112 0.778927,0 1.405467,0.237067 1.879597,0.7112 0.47413,0.474133 0.7112,1.100667 0.7112,1.8796 v 24.383997 c 0,0.74507 -0.23707,1.3716 -0.7112,1.8796 -0.47413,0.47413 -1.10067,0.7112 -1.879597,0.7112 z m 20.878802,10.16 c -0.74507,0 -1.3716,-0.23707 -1.8796,-0.7112 -0.47413,-0.508 -0.7112,-1.13453 -0.7112,-1.8796 v -12.4968 c 0,-1.9304 -0.3556,-3.5052 -1.0668,-4.7244 -0.7112,-1.2192 -1.6764,-2.11667 -2.895605,-2.6924 -1.18533,-0.6096 -2.55693,-0.9144 -4.1148,-0.9144 -1.4224,0 -2.70933,0.28787 -3.8608,0.8636 -1.15147,0.57573 -2.06587,1.35467 -2.7432,2.3368 -0.67733,0.94827 -1.016,2.04893 -1.016,3.302 h -3.200397 c 0,-2.1336 0.508,-4.03013 1.523997,-5.6896 1.04987,-1.69333 2.47227,-3.03107 4.2672,-4.0132 1.79493,-0.98213 3.81,-1.4732 6.0452,-1.4732 2.3368,0 4.419605,0.508 6.248405,1.524 1.86267,0.98213 3.31893,2.4384 4.3688,4.3688 1.08373,1.9304 1.6256,4.30107 1.6256,7.112 v 12.4968 c 0,0.74507 -0.254,1.3716 -0.762,1.8796 -0.47413,0.47413 -1.08373,0.7112 -1.8288,0.7112 z m -20.878802,0 c -0.74507,0 -1.3716,-0.23707 -1.8796,-0.7112 -0.47413,-0.508 -0.7112,-1.13453 -0.7112,-1.8796 v -22.6568 c 0,-0.77893 0.23707,-1.40547 0.7112,-1.8796 0.508,-0.47413 1.13453,-0.7112 1.8796,-0.7112 0.778927,0 1.405467,0.23707 1.879597,0.7112 0.47413,0.47413 0.7112,1.10067 0.7112,1.8796 v 22.6568 c 0,0.74507 -0.23707,1.3716 -0.7112,1.8796 -0.47413,0.47413 -1.10067,0.7112 -1.879597,0.7112 z"
       id="text1"
       aria-label="bleh"
       sodipodi:nodetypes="scscscsssccsccsccssccsccscssscssscssssssssssssssccsccsccscscccccssccssssccccsccsscsscsssscsscssscssccccssccssssscsscsssscs" />
  </g>
</svg>
